<?xml version="1.0" encoding="utf-8"?>
<!-- Generator: Adobe Illustrator 16.0.0, SVG Export Plug-In . SVG Version: 6.00 Build 0)  -->
<!DOCTYPE svg PUBLIC "-//W3C//DTD SVG 1.1//EN" "http://www.w3.org/Graphics/SVG/1.1/DTD/svg11.dtd">
<svg version="1.1"
	 id="svg3027" xmlns:dc="http://purl.org/dc/elements/1.1/" xmlns:cc="http://creativecommons.org/ns#" xmlns:rdf="http://www.w3.org/1999/02/22-rdf-syntax-ns#" xmlns:svg="http://www.w3.org/2000/svg" xmlns:sodipodi="http://sodipodi.sourceforge.net/DTD/sodipodi-0.dtd" xmlns:inkscape="http://www.inkscape.org/namespaces/inkscape" sodipodi:docname="exoscale-logo-square.svg" inkscape:version="0.48.4 r9939"
	 xmlns="http://www.w3.org/2000/svg" xmlns:xlink="http://www.w3.org/1999/xlink" x="0px" y="0px" width="286.849px" height="80px"
	 viewBox="0 0 286.849 80" enable-background="new 0 0 286.849 80" xml:space="preserve">
<sodipodi:namedview  showguides="true" fit-margin-left="0" fit-margin-top="0" showgrid="false" inkscape:cy="40.000001" inkscape:cx="78.100517" inkscape:zoom="3.0228815" borderopacity="1.0" bordercolor="#666666" pagecolor="#ffffff" id="base" inkscape:window-height="863" inkscape:window-width="1749" fit-margin-bottom="0" inkscape:current-layer="layer1" inkscape:pageshadow="2" inkscape:document-units="px" inkscape:pageopacity="0.0" fit-margin-right="0" inkscape:guide-bbox="true" inkscape:window-maximized="0" inkscape:window-y="349" inkscape:window-x="471">
	<sodipodi:guide  position="-152.83431,148.53378" orientation="-0.70710678,0.70710678" id="guide3134"></sodipodi:guide>
</sodipodi:namedview>
<path id="rect3050" fill="#C00000" d="M9.048,0h61.904C75.949,0,80,4.051,80,9.048v61.904C80,75.949,75.949,80,70.952,80H9.048
	C4.051,80,0,75.949,0,70.952V9.048C0,4.051,4.051,0,9.048,0z"/>
<g id="g19" transform="matrix(0.42836016,0,0,0.42836016,343.54716,500.67717)">
	<path id="path21" inkscape:connector-curvature="0" fill="#FFFFFF" d="M-726.689-1128.193l50.83,50.826h28.808
		c5.279,0,6.544-3.052,2.814-6.785l-44.041-44.042c-3.735-3.732-11.112-6.789-16.394-6.789h-19.205
		c-5.276,0-6.545,3.052-2.822,6.781C-726.692-1128.199-726.691-1128.193-726.689-1128.193z"/>
	<path id="path23" inkscape:connector-curvature="0" fill="#FFFFFF" d="M-647.052-1073.524h-28.807l-50.829,50.825
		c-0.002,0.009-0.005,0.009-0.01,0.011c-3.723,3.732-2.455,6.782,2.822,6.782h19.205c5.282,0,12.66-3.057,16.395-6.789
		l44.041-44.043C-640.507-1070.469-641.772-1073.524-647.052-1073.524L-647.052-1073.524z"/>
	<path id="path25" inkscape:connector-curvature="0" fill="#FFFFFF" d="M-718.756-1039.633c0-0.005-0.002-0.005-0.006-0.005
		l-33.885-33.887h-19.208c-3.517,0-4.361,2.034-1.875,4.528l29.361,29.359c2.491,2.485,7.41,4.525,10.929,4.525h12.802
		C-717.117-1035.113-716.273-1037.144-718.756-1039.633z"/>
	<path id="path27" inkscape:connector-curvature="0" fill="#FFFFFF" d="M-771.856-1077.367h19.208l33.885-33.884
		c0.003,0,0.006-0.002,0.006-0.002c2.484-2.49,1.639-4.52-1.882-4.52h-12.802c-3.519,0-8.437,2.034-10.929,4.522l-29.361,29.361
		C-776.217-1079.402-775.372-1077.367-771.856-1077.367z"/>
</g>
<path id="path2986" inkscape:connector-curvature="0" d="M89.213,41.389c0.05,4.541,2.42,10.023,8.396,10.023
	c4.543,0,7.012-2.666,8-6.518h3.109c-1.332,5.777-4.691,9.136-11.11,9.136c-8.099,0-11.506-6.224-11.506-13.479
	c0-6.718,3.407-13.483,11.506-13.483c8.197,0,11.457,7.161,11.212,14.321H89.213z M105.708,38.77
	c-0.148-4.69-3.062-9.085-8.099-9.085c-5.088,0-7.9,4.443-8.396,9.085H105.708z"/>
<path id="path2988" inkscape:connector-curvature="0" d="M120.965,40.054l-9.135-12.247h3.901l7.257,9.68l7.112-9.68h3.903
	l-9.186,12.198l9.926,13.284h-3.951l-8-10.717l-7.853,10.717h-3.852L120.965,40.054L120.965,40.054z"/>
<path id="path2990" inkscape:connector-curvature="0" d="M161.555,40.55c0,7.308-4.247,13.479-12.051,13.479
	c-7.803,0-12.048-6.172-12.048-13.479c0-7.311,4.246-13.483,12.048-13.483C157.308,27.067,161.555,33.239,161.555,40.55z
	 M140.567,40.55c0,5.431,2.963,10.862,8.938,10.862c5.976,0,8.939-5.432,8.939-10.862c0-5.435-2.964-10.865-8.939-10.865
	S140.567,35.116,140.567,40.55z"/>
<path id="path2992" inkscape:connector-curvature="0" d="M171.43,45.092c0.297,3.258,2.764,4.441,5.779,4.441
	c2.123,0,5.826-0.441,5.678-3.355c-0.15-2.961-4.248-3.309-8.344-4.246c-4.15-0.889-8.2-2.37-8.2-7.556
	c0-5.581,6.026-7.308,10.667-7.308c5.234,0,9.976,2.173,10.667,7.852h-5.876c-0.494-2.666-2.715-3.406-5.185-3.406
	c-1.63,0-4.645,0.394-4.645,2.615c0,2.766,4.149,3.16,8.298,4.099c4.098,0.938,8.246,2.419,8.246,7.457
	c0,6.073-6.123,8.297-11.406,8.297c-6.419,0-11.211-2.862-11.309-8.889H171.43z"/>
<path id="path2994" inkscape:connector-curvature="0" d="M211.036,36.301c-0.445-3.11-2.717-4.789-5.828-4.789
	c-2.914,0-7.013,1.53-7.013,9.284c0,4.245,1.876,8.736,6.765,8.736c3.262,0,5.533-2.17,6.076-5.823h5.629
	c-1.037,6.616-5.137,10.271-11.705,10.271c-8,0-12.395-5.681-12.395-13.184c0-7.704,4.196-13.73,12.594-13.73
	c5.927,0,10.963,2.963,11.506,9.234L211.036,36.301L211.036,36.301z"/>
<path id="path2996" inkscape:connector-curvature="0" d="M243.625,47.611c0,1.383,0.298,1.923,1.334,1.923
	c0.345,0,0.79,0,1.383-0.097v3.9c-0.839,0.297-2.617,0.643-3.556,0.643c-2.272,0-3.901-0.79-4.346-3.109
	c-2.222,2.17-5.827,3.109-8.841,3.109c-4.594,0-8.739-2.469-8.739-7.458c0-6.369,5.086-7.406,9.826-7.95
	c4.05-0.74,7.653-0.296,7.653-3.604c0-2.914-3.012-3.455-5.281-3.455c-3.162,0-5.384,1.283-5.629,4.047h-5.632
	c0.396-6.567,5.976-8.493,11.605-8.493c4.989,0,10.224,2.023,10.224,7.407v13.137H243.625z M237.997,40.5
	c-1.727,1.135-4.445,1.088-6.916,1.532c-2.418,0.394-4.59,1.283-4.59,4.246c0,2.519,3.209,3.257,5.184,3.257
	c2.469,0,6.322-1.281,6.322-4.838V40.5z"/>
<path id="path2998" inkscape:connector-curvature="0" d="M250.833,18.03h5.631v35.259h-5.631V18.03z"/>
<path id="path3000" inkscape:connector-curvature="0" d="M267.969,41.98c0,4,2.172,7.554,6.866,7.554
	c3.257,0,5.233-1.431,6.221-4.245h5.331c-1.233,5.582-5.974,8.691-11.552,8.691c-8.001,0-12.497-5.58-12.497-13.43
	c0-7.262,4.744-13.483,12.348-13.483c8.049,0,12.988,7.259,12.049,14.913H267.969L267.969,41.98z M281.106,38.277
	c-0.197-3.556-2.619-6.764-6.42-6.764c-3.9,0-6.568,2.961-6.718,6.764H281.106z"/>
</svg>
